<mxfile host="app.diagrams.net" modified="2023-10-31T11:36:56.425Z" agent="Mozilla/5.0 (Windows NT 10.0; Win64; x64) AppleWebKit/537.36 (KHTML, like Gecko) Chrome/118.0.0.0 Safari/537.36" etag="1UWT_NBjXJOStpdHVdS2" version="22.0.8" type="github">
  <diagram name="Page-1" id="uJQgd7l4AZdhinpA56cd">
    <mxGraphModel dx="1050" dy="534" grid="1" gridSize="10" guides="1" tooltips="1" connect="1" arrows="1" fold="1" page="1" pageScale="1" pageWidth="850" pageHeight="1100" math="0" shadow="0">
      <root>
        <mxCell id="0" />
        <mxCell id="1" parent="0" />
        <mxCell id="SpWobmAIMhJwg7nwrQbL-1" value="" style="whiteSpace=wrap;html=1;aspect=fixed;fontStyle=0" parent="1" vertex="1">
          <mxGeometry x="60" y="40" width="140" height="140" as="geometry" />
        </mxCell>
      </root>
    </mxGraphModel>
  </diagram>
</mxfile>
